<svg width="727" height="551" viewBox="0 0 727 551" fill="none" xmlns="http://www.w3.org/2000/svg">
<path d="M198 68.875H132V0H198V68.875ZM528 68.875H594V0H528V68.875ZM726 275.5V482.125H660V344.375H594V482.125H528V413.25H198V482.125H132V344.375H66V482.125H0V275.5H66V206.625H132V137.75H198V68.875H264V137.75H462V68.875H528V137.75H594V206.625H660V275.5H726ZM462 206.625V275.5H528V206.625H462ZM198 275.5H264V206.625H198V275.5ZM330 482.125H198V551H330V482.125ZM528 482.125H396V551H528V482.125Z" fill="white"/>
</svg>
